<svg fill="none" height="60" viewBox="0 0 60 60" width="60" xmlns="http://www.w3.org/2000/svg" xmlns:xlink="http://www.w3.org/1999/xlink"><clipPath id="a"><rect height="60" rx="12" width="60"/></clipPath><clipPath id="b"><path d="m14 14h31v32.7222h-31z"/></clipPath><g clip-path="url(#a)"><rect fill="#fcf8f3" height="60" rx="12" width="60"/><g clip-path="url(#b)" clip-rule="evenodd" fill-rule="evenodd"><path d="m41.1307 42.643c-2.9738 2.1919-7.2841 3.3614-10.9952 3.3614-5.2036 0-9.8881-1.9246-13.4322-5.1256-.2784-.2517-.0289-.5948.3052-.3987 3.8247 2.2253 8.5538 3.564 13.4388 3.564 3.2946 0 6.9188-.6816 10.2512-2.0961.5034-.2138.9244.3297.4322.695z" fill="#f90"/><path d="m42.367 41.2261c-.3787-.4856-2.5127-.2294-3.4705-.1158-.2919.0356-.3364-.2183-.0736-.401 1.6997-1.1962 4.4886-.8509 4.8138-.4499.3252.4032-.0847 3.1987-1.6818 4.533-.2451.205-.4789.0958-.3698-.1759.3586-.8955 1.1628-2.9025.7819-3.3904z" fill="#f90"/><path d="m32.2669 28.6636c0 1.4741.0372 2.7034-.7078 4.0125-.6013 1.0643-1.5539 1.7189-2.6183 1.7189-1.4528 0-2.2989-1.1069-2.2989-2.7407 0-3.2249 2.8897-3.8103 5.625-3.8103zm3.8156 9.2224c-.2501.2235-.612.2395-.894.0905-1.2559-1.0431-1.4794-1.5273-2.1713-2.5225-2.0754 2.118-3.5442 2.7513-6.2369 2.7513-3.1824 0-5.6623-1.9637-5.6623-5.8964 0-3.0706 1.6657-5.162 4.0338-6.1838 2.0542-.9046 4.9226-1.0643 7.1151-1.3144v-.4896c0-.8994.0692-1.9637-.4577-2.7407-.463-.6971-1.3464-.9845-2.1233-.9845-1.4422 0-2.73.7397-3.044 2.2724-.0639.3406-.314.6758-.6546.6918l-3.6719-.3938c-.3087-.0692-.6493-.3193-.5641-.7929.8461-4.4489 4.864-5.79 8.4614-5.79 1.8413 0 4.2467.4896 5.6995 1.8839 1.8413 1.7189 1.6657 4.0125 1.6657 6.5084v5.8964c0 1.7721.7344 2.549 1.4262 3.5069.2448.3406.298.7504-.0106 1.0058-.7717.6439-2.1447 1.8413-2.9003 2.5119z" fill="#000"/></g></g></svg>