<svg fill="none" height="60" viewBox="0 0 60 60" width="60" xmlns="http://www.w3.org/2000/svg" xmlns:xlink="http://www.w3.org/1999/xlink"><clipPath id="a"><rect height="60" rx="12" width="60"/></clipPath><clipPath id="b"><path d="m7.60859 20.8678h44.3914v19.2642h-44.3914z"/></clipPath><g clip-path="url(#a)"><rect fill="#fcf8f3" height="60" rx="12" width="60"/><g clip-path="url(#b)"><path d="m13.3666 26.2598c-3.1408 0-5.75801 1.3256-5.75801 5.3249 0 3.1683 1.75989 5.1635 5.83911 5.1635 4.8015 0 5.1092-3.1465 5.1092-3.1465h-2.3265s-.4988 1.6943-2.9246 1.6943c-1.9758 0-3.3968-1.3278-3.3968-3.1889h8.8912v-1.1679c0-1.8412-1.1749-4.6794-5.4336-4.6794zm-.0811 1.4926c1.8807 0 3.1629 1.1462 3.1629 2.8641h-6.48794c0-1.8238 1.67354-2.8641 3.32504-2.8641z" fill="#e53238"/><path d="m18.7987 22.3871v12.3527c0 .7012-.0503 1.6857-.0503 1.6857h2.219s.0796-.7071.0796-1.3533c0 0 1.0964 1.7063 4.0774 1.7063 3.1391 0 5.2714-2.1682 5.2714-5.2745 0-2.8898-1.9586-5.214-5.2664-5.214-3.0975 0-4.06 1.664-4.06 1.664v-5.5669zm5.758 5.4308c2.1317 0 3.4872 1.5739 3.4872 3.6861 0 2.2649-1.5656 3.7466-3.472 3.7466-2.2752 0-3.5025-1.7673-3.5025-3.7264 0-1.8256 1.1013-3.7063 3.4873-3.7063z" fill="#0064d2"/><path d="m35.9104 26.2598c-4.7251 0-5.0282 2.5738-5.0282 2.9851h2.3519s.1233-1.5026 2.5141-1.5026c1.5535 0 2.7573.7074 2.7573 2.0674v.4841h-2.7573c-3.6606 0-5.5959 1.0653-5.5959 3.2272 0 2.1276 1.7881 3.2852 4.2045 3.2852 3.2932 0 4.354-1.8102 4.354-1.8102 0 .72.0558 1.4295.0558 1.4295h2.0908s-.0811-.8795-.0811-1.4422v-4.8635c0-3.1889-2.5856-3.86-4.8659-3.86zm2.5951 5.4862v.6455c0 .8418-.5221 2.9347-3.5962 2.9347-1.6834 0-2.4051-.8357-2.4051-1.8052 0-1.7636 2.4305-1.775 6.0013-1.775z" fill="#f5af02"/><path d="m39.51 26.6635h2.6459l3.7971 7.5681 3.7885-7.5681h2.3968l-6.9007 13.4737h-2.514l1.9912-3.756z" fill="#86b817"/></g></g></svg>