<?xml version="1.0" encoding="UTF-8"?>
<svg xmlns="http://www.w3.org/2000/svg" width="60" height="60" viewBox="0 0 60 60" fill="none">
  <g clip-path="url(#clip0_1401_746)">
    <rect width="60" height="60" rx="12" fill="#FCF8F3"></rect>
    <path d="M37.0212 25.57C39.0907 27.0486 41.626 27.9186 44.3643 27.9186V22.6522C43.846 22.6523 43.3291 22.5983 42.8222 22.4909V26.6364C40.0841 26.6364 37.5492 25.7664 35.4791 24.2879V35.0352C35.4791 40.4115 31.1185 44.7696 25.7397 44.7696C23.7328 44.7696 21.8674 44.1632 20.3178 43.1232C22.0864 44.9306 24.5528 46.0518 27.2815 46.0518C32.6606 46.0518 37.0214 41.6937 37.0214 36.3171V25.57H37.0212ZM38.9235 20.2568C37.8659 19.1019 37.1715 17.6094 37.0212 15.9594V15.282H35.5598C35.9277 17.3792 37.1824 19.1709 38.9235 20.2568ZM23.7199 38.9975C23.129 38.2231 22.8096 37.2758 22.8111 36.3017C22.8111 33.8428 24.8056 31.849 27.2663 31.849C27.7249 31.8489 28.1807 31.9191 28.6178 32.0577V26.6735C28.107 26.6036 27.5916 26.5739 27.0763 26.5848V30.7755C26.639 30.6369 26.1829 30.5665 25.7242 30.567C23.2635 30.567 21.2691 32.5605 21.2691 35.0198C21.2691 36.7587 22.266 38.2641 23.7199 38.9975Z" fill="#FF004F"></path>
    <path d="M35.4791 24.2877C37.5492 25.7663 40.0842 26.6362 42.8222 26.6362V22.4908C41.2938 22.1654 39.9408 21.3671 38.9236 20.2568C37.1823 19.1708 35.9277 17.3791 35.5599 15.282H31.7213V36.3169C31.7126 38.7691 29.7215 40.7547 27.2661 40.7547C25.8192 40.7547 24.5337 40.0654 23.7196 38.9975C22.2658 38.2641 21.2689 36.7586 21.2689 35.0199C21.2689 32.5608 23.2633 30.5671 25.724 30.5671C26.1955 30.5671 26.6499 30.6405 27.0761 30.7757V26.5849C21.7918 26.694 17.542 31.0095 17.542 36.317C17.542 38.9665 18.6003 41.3683 20.318 43.1233C21.8675 44.1632 23.7329 44.7697 25.7399 44.7697C31.1187 44.7697 35.4792 40.4114 35.4792 35.0352V24.2877H35.4791Z" fill="black"></path>
    <path d="M42.8222 22.4908V21.3699C41.444 21.372 40.0929 20.9862 38.9236 20.2567C39.9587 21.3894 41.3217 22.1704 42.8222 22.4908ZM35.5599 15.282C35.5248 15.0816 35.4978 14.8799 35.4791 14.6774V14H30.1791V35.0351C30.1706 37.487 28.1796 39.4726 25.724 39.4726C25.0031 39.4726 24.3224 39.3015 23.7196 38.9976C24.5337 40.0654 25.8191 40.7546 27.2661 40.7546C29.7213 40.7546 31.7127 38.7692 31.7213 36.317V15.282H35.5599ZM27.0763 26.5849V25.3916C26.6335 25.3311 26.187 25.3007 25.7399 25.301C20.3606 25.3008 16 29.6592 16 35.0351C16 38.4055 17.7138 41.3758 20.318 43.123C18.6004 41.3682 17.5421 38.9663 17.5421 36.3169C17.5421 31.0095 21.7918 26.694 27.0763 26.5849Z" fill="#00F2EA"></path>
  </g>
  <defs>
    <clipPath id="clip0_1401_746">
      <rect width="60" height="60" rx="12" fill="white"></rect>
    </clipPath>
  </defs>
</svg>
